<svg width="20" height="20" viewBox="0 0 20 20" fill="none" xmlns="http://www.w3.org/2000/svg">
<path d="M1.45001 2.151L12.264 0V16.776L1.45001 18.927V2.151Z" fill="white" fill-opacity="0.2"/>
<path d="M16.737 17.849L5.923 20V3.224L16.737 1.073V17.849ZM6.906 4.023V18.809L15.754 17.05V2.264L6.906 4.023Z" fill="white"/>
<path d="M20 12.976V12C18.188 12.35 16.737 11.149 16.737 9.31702L15.754 9.50202C15.754 11.334 14.285 13.102 12.473 13.452L0 15.858V16.834L12.473 14.428C14.285 14.078 15.754 15.133 15.754 16.965L16.737 16.78C16.737 14.949 18.188 13.325 20 12.976Z" fill="white"/>
</svg>
